<svg width="390" height="571" viewBox="0 0 390 571" fill="none" xmlns="http://www.w3.org/2000/svg">
<path d="M188 354.656V273L-76 537H5.6559L188 354.656Z" fill="url(#paint0_linear_17_104)"/>
<g style="mix-blend-mode:multiply">
<path d="M512 349.398V273L265 520H341.398L512 349.398Z" fill="url(#paint1_linear_17_104)"/>
</g>
<path d="M456 421.695V362L265 555H324.077L456 421.695Z" fill="url(#paint2_linear_17_104)"/>
<g filter="url(#filter0_f_17_104)">
<path d="M669 -94.3209V-210L295 164H410.679L669 -94.3209Z" fill="url(#paint3_linear_17_104)"/>
</g>
<g filter="url(#filter1_f_17_104)">
<path d="M405.1 328L184 549.1H199.8L405.1 343.8V328Z" fill="url(#paint4_linear_17_104)"/>
</g>
<defs>
<filter id="filter0_f_17_104" x="264" y="-241" width="436" height="436" filterUnits="userSpaceOnUse" color-interpolation-filters="sRGB">
<feFlood flood-opacity="0" result="BackgroundImageFix"/>
<feBlend mode="normal" in="SourceGraphic" in2="BackgroundImageFix" result="shape"/>
<feGaussianBlur stdDeviation="15.5" result="effect1_foregroundBlur_17_104"/>
</filter>
<filter id="filter1_f_17_104" x="163" y="307" width="263.1" height="263.1" filterUnits="userSpaceOnUse" color-interpolation-filters="sRGB">
<feFlood flood-opacity="0" result="BackgroundImageFix"/>
<feBlend mode="normal" in="SourceGraphic" in2="BackgroundImageFix" result="shape"/>
<feGaussianBlur stdDeviation="10.5" result="effect1_foregroundBlur_17_104"/>
</filter>
<linearGradient id="paint0_linear_17_104" x1="-124" y1="558.529" x2="181.647" y2="297.706" gradientUnits="userSpaceOnUse">
<stop stop-color="#00E9EA"/>
<stop offset="1" stop-color="#1F80F0" stop-opacity="0.49"/>
</linearGradient>
<linearGradient id="paint1_linear_17_104" x1="157.143" y1="748.887" x2="437.9" y2="416.672" gradientUnits="userSpaceOnUse">
<stop stop-color="#1F80F0"/>
<stop offset="1" stop-color="#0059BF" stop-opacity="0"/>
</linearGradient>
<linearGradient id="paint2_linear_17_104" x1="230.273" y1="570.739" x2="453.342" y2="382.356" gradientUnits="userSpaceOnUse">
<stop stop-color="#00E9EA"/>
<stop offset="1" stop-color="#1F80F0" stop-opacity="0.49"/>
</linearGradient>
<linearGradient id="paint4_linear_17_104" x1="51.0474" y1="584.875" x2="363.896" y2="258.925" gradientUnits="userSpaceOnUse">
<stop stop-color="#00E9EA"/>
<stop offset="1" stop-color="#1F80F0"/>
</linearGradient>
</defs>
</svg>
