<svg width="390" height="641" viewBox="0 0 390 641" fill="none" xmlns="http://www.w3.org/2000/svg">
<g style="mix-blend-mode:multiply">
<path d="M361 -192.212V-388L-272 245H-76.2114L361 -192.212Z" fill="url(#paint0_linear_17_106)"/>
</g>
<g filter="url(#filter0_f_17_106)">
<path d="M-45 140H128L-45 313V140Z" fill="url(#paint1_linear_17_106)"/>
<path d="M-45 140H128L-45 313V140Z" fill="url(#paint2_linear_17_106)"/>
</g>
<g style="mix-blend-mode:multiply">
<path d="M949 -445.405V-811L-233 371H132.596L949 -445.405Z" fill="url(#paint3_linear_17_106)"/>
</g>
<g filter="url(#filter1_f_17_106)">
<path d="M658 -95.3209V-211L284 163H399.679L658 -95.3209Z" fill="url(#paint4_linear_17_106)"/>
</g>
<defs>
<filter id="filter0_f_17_106" x="-78" y="107" width="239" height="239" filterUnits="userSpaceOnUse" color-interpolation-filters="sRGB">
<feFlood flood-opacity="0" result="BackgroundImageFix"/>
<feBlend mode="normal" in="SourceGraphic" in2="BackgroundImageFix" result="shape"/>
<feGaussianBlur stdDeviation="16.5" result="effect1_foregroundBlur_17_106"/>
</filter>
<filter id="filter1_f_17_106" x="253" y="-242" width="436" height="436" filterUnits="userSpaceOnUse" color-interpolation-filters="sRGB">
<feFlood flood-opacity="0" result="BackgroundImageFix"/>
<feBlend mode="normal" in="SourceGraphic" in2="BackgroundImageFix" result="shape"/>
<feGaussianBlur stdDeviation="15.5" result="effect1_foregroundBlur_17_106"/>
</filter>
<linearGradient id="paint0_linear_17_106" x1="-548.41" y1="831.58" x2="171.1" y2="-19.805" gradientUnits="userSpaceOnUse">
<stop stop-color="#1F80F0"/>
<stop offset="1" stop-color="#0059BF" stop-opacity="0"/>
</linearGradient>
<linearGradient id="paint1_linear_17_106" x1="-45" y1="226.15" x2="128" y2="226.15" gradientUnits="userSpaceOnUse">
<stop stop-color="white"/>
<stop offset="1" stop-color="#4B4B4B" stop-opacity="0"/>
</linearGradient>
<linearGradient id="paint2_linear_17_106" x1="-149.029" y1="340.992" x2="95.7598" y2="85.952" gradientUnits="userSpaceOnUse">
<stop stop-color="#00E9EA"/>
<stop offset="1" stop-color="#1F80F0"/>
</linearGradient>
<linearGradient id="paint3_linear_17_106" x1="699.5" y1="788" x2="129" y2="114.5" gradientUnits="userSpaceOnUse">
<stop stop-color="#1F80F0"/>
<stop offset="1" stop-color="#0059BF" stop-opacity="0"/>
</linearGradient>
<linearGradient id="paint4_linear_17_106" x1="216" y1="193.5" x2="649" y2="-176" gradientUnits="userSpaceOnUse">
<stop stop-color="#00E9EA"/>
<stop offset="1" stop-color="#1F80F0" stop-opacity="0.49"/>
</linearGradient>
</defs>
</svg>
