<svg width="2355" height="1770" viewBox="0 0 2355 1770" fill="none" xmlns="http://www.w3.org/2000/svg">
<g style="mix-blend-mode:multiply">
<path d="M1836 1147.79V952L1203 1585H1398.79L1836 1147.79Z" fill="url(#paint0_linear_13_92)"/>
</g>
<g style="mix-blend-mode:multiply">
<path d="M1634 768.595V403L452 1585H817.596L1634 768.595Z" fill="url(#paint1_linear_13_92)"/>
</g>
<g style="mix-blend-mode:multiply">
<path d="M1450 365.595V0L268 1182H633.596L1450 365.595Z" fill="url(#paint2_linear_13_92)"/>
</g>
<g style="mix-blend-mode:multiply">
<path d="M752 833.788V638L119 1271H314.789L752 833.788Z" fill="url(#paint3_linear_13_92)"/>
</g>
<g filter="url(#filter0_f_13_92)">
<path d="M2308 821.679V706L1934 1080H2049.68L2308 821.679Z" fill="url(#paint4_linear_13_92)"/>
</g>
<path d="M835.6 638L363 1110.6H396.8L835.6 671.8V638Z" fill="url(#paint5_linear_13_92)"/>
<path d="M835.6 638L363 1110.6H396.8L835.6 671.8V638Z" fill="url(#paint6_linear_13_92)"/>
<g filter="url(#filter1_f_13_92)">
<path d="M491 1423.66V1342L227 1606H308.656L491 1423.66Z" fill="url(#paint7_linear_13_92)"/>
</g>
<g filter="url(#filter2_f_13_92)">
<path d="M585 1045L250 1380H273.939L585 1068.94V1045Z" fill="url(#paint8_linear_13_92)"/>
</g>
<g filter="url(#filter3_f_13_92)">
<path d="M784.1 841L563 1062.1H578.8L784.1 856.8V841Z" fill="url(#paint9_linear_13_92)"/>
</g>
<g filter="url(#filter4_f_13_92)">
<path d="M1568.1 1177L1347 1398.1H1362.8L1568.1 1192.8V1177Z" fill="url(#paint10_linear_13_92)"/>
</g>
<path opacity="0.73" d="M361 1487H438L361 1564V1487Z" fill="url(#paint11_linear_13_92)"/>
<path d="M2355 1254.68V1139L1981 1513H2096.68L2355 1254.68Z" fill="url(#paint12_linear_13_92)"/>
<g filter="url(#filter5_f_13_92)">
<path d="M2128.1 938L1907 1159.1H1922.8L2128.1 953.8V938Z" fill="url(#paint13_linear_13_92)"/>
</g>
<g filter="url(#filter6_f_13_92)">
<path d="M452 1200H625L452 1373V1200Z" fill="url(#paint14_linear_13_92)"/>
<path d="M452 1200H625L452 1373V1200Z" fill="url(#paint15_linear_13_92)"/>
</g>
<g filter="url(#filter7_f_13_92)">
<path d="M400 1370L21 1749H48.0835L400 1397.08V1370Z" fill="url(#paint16_linear_13_92)"/>
<path d="M400 1370L21 1749H48.0835L400 1397.08V1370Z" fill="url(#paint17_linear_13_92)"/>
</g>
<defs>
<filter id="filter0_f_13_92" x="1903" y="675" width="436" height="436" filterUnits="userSpaceOnUse" color-interpolation-filters="sRGB">
<feFlood flood-opacity="0" result="BackgroundImageFix"/>
<feBlend mode="normal" in="SourceGraphic" in2="BackgroundImageFix" result="shape"/>
<feGaussianBlur stdDeviation="15.5" result="effect1_foregroundBlur_13_92"/>
</filter>
<filter id="filter1_f_13_92" x="176" y="1291" width="366" height="366" filterUnits="userSpaceOnUse" color-interpolation-filters="sRGB">
<feFlood flood-opacity="0" result="BackgroundImageFix"/>
<feBlend mode="normal" in="SourceGraphic" in2="BackgroundImageFix" result="shape"/>
<feGaussianBlur stdDeviation="25.5" result="effect1_foregroundBlur_13_92"/>
</filter>
<filter id="filter2_f_13_92" x="229" y="1024" width="377" height="377" filterUnits="userSpaceOnUse" color-interpolation-filters="sRGB">
<feFlood flood-opacity="0" result="BackgroundImageFix"/>
<feBlend mode="normal" in="SourceGraphic" in2="BackgroundImageFix" result="shape"/>
<feGaussianBlur stdDeviation="10.5" result="effect1_foregroundBlur_13_92"/>
</filter>
<filter id="filter3_f_13_92" x="551" y="829" width="245.1" height="245.1" filterUnits="userSpaceOnUse" color-interpolation-filters="sRGB">
<feFlood flood-opacity="0" result="BackgroundImageFix"/>
<feBlend mode="normal" in="SourceGraphic" in2="BackgroundImageFix" result="shape"/>
<feGaussianBlur stdDeviation="6" result="effect1_foregroundBlur_13_92"/>
</filter>
<filter id="filter4_f_13_92" x="1326" y="1156" width="263.1" height="263.1" filterUnits="userSpaceOnUse" color-interpolation-filters="sRGB">
<feFlood flood-opacity="0" result="BackgroundImageFix"/>
<feBlend mode="normal" in="SourceGraphic" in2="BackgroundImageFix" result="shape"/>
<feGaussianBlur stdDeviation="10.5" result="effect1_foregroundBlur_13_92"/>
</filter>
<filter id="filter5_f_13_92" x="1886" y="917" width="263.1" height="263.1" filterUnits="userSpaceOnUse" color-interpolation-filters="sRGB">
<feFlood flood-opacity="0" result="BackgroundImageFix"/>
<feBlend mode="normal" in="SourceGraphic" in2="BackgroundImageFix" result="shape"/>
<feGaussianBlur stdDeviation="10.5" result="effect1_foregroundBlur_13_92"/>
</filter>
<filter id="filter6_f_13_92" x="419" y="1167" width="239" height="239" filterUnits="userSpaceOnUse" color-interpolation-filters="sRGB">
<feFlood flood-opacity="0" result="BackgroundImageFix"/>
<feBlend mode="normal" in="SourceGraphic" in2="BackgroundImageFix" result="shape"/>
<feGaussianBlur stdDeviation="16.5" result="effect1_foregroundBlur_13_92"/>
</filter>
<filter id="filter7_f_13_92" x="0" y="1349" width="421" height="421" filterUnits="userSpaceOnUse" color-interpolation-filters="sRGB">
<feFlood flood-opacity="0" result="BackgroundImageFix"/>
<feBlend mode="normal" in="SourceGraphic" in2="BackgroundImageFix" result="shape"/>
<feGaussianBlur stdDeviation="10.5" result="effect1_foregroundBlur_13_92"/>
</filter>
<linearGradient id="paint0_linear_13_92" x1="926.59" y1="2171.58" x2="1646.1" y2="1320.2" gradientUnits="userSpaceOnUse">
<stop stop-color="#1F80F0"/>
<stop offset="1" stop-color="#0059BF" stop-opacity="0"/>
</linearGradient>
<linearGradient id="paint1_linear_13_92" x1="1384.5" y1="2002" x2="814" y2="1328.5" gradientUnits="userSpaceOnUse">
<stop stop-color="#1F80F0"/>
<stop offset="1" stop-color="#0059BF" stop-opacity="0"/>
</linearGradient>
<linearGradient id="paint2_linear_13_92" x1="1200.5" y1="1599" x2="630" y2="925.5" gradientUnits="userSpaceOnUse">
<stop stop-color="#1F80F0"/>
<stop offset="1" stop-color="#0059BF" stop-opacity="0"/>
</linearGradient>
<linearGradient id="paint3_linear_13_92" x1="-157.41" y1="1857.58" x2="562.1" y2="1006.2" gradientUnits="userSpaceOnUse">
<stop stop-color="#1F80F0"/>
<stop offset="1" stop-color="#0059BF" stop-opacity="0"/>
</linearGradient>
<linearGradient id="paint4_linear_13_92" x1="1866" y1="1110.5" x2="2299" y2="741" gradientUnits="userSpaceOnUse">
<stop stop-color="#00E9EA"/>
<stop offset="1" stop-color="#1F80F0" stop-opacity="0.49"/>
</linearGradient>
<linearGradient id="paint5_linear_13_92" x1="205.5" y1="1183.5" x2="642.5" y2="842" gradientUnits="userSpaceOnUse">
<stop stop-color="white"/>
<stop offset="1" stop-color="#4B4B4B" stop-opacity="0"/>
</linearGradient>
<linearGradient id="paint6_linear_13_92" x1="277.073" y1="1149.14" x2="824.227" y2="682.227" gradientUnits="userSpaceOnUse">
<stop stop-color="#00E9EA"/>
<stop offset="1" stop-color="#1F80F0" stop-opacity="0.49"/>
</linearGradient>
<linearGradient id="paint7_linear_13_92" x1="179" y1="1627.53" x2="484.647" y2="1366.71" gradientUnits="userSpaceOnUse">
<stop stop-color="#00E9EA"/>
<stop offset="1" stop-color="#1F80F0" stop-opacity="0.49"/>
</linearGradient>
<linearGradient id="paint8_linear_13_92" x1="259.848" y1="1370.76" x2="576.938" y2="1076.35" gradientUnits="userSpaceOnUse">
<stop stop-color="#40FEFF"/>
<stop offset="1" stop-color="#1F80F0" stop-opacity="0.49"/>
</linearGradient>
<linearGradient id="paint9_linear_13_92" x1="522.8" y1="1080.13" x2="778.779" y2="861.691" gradientUnits="userSpaceOnUse">
<stop stop-color="#00E9EA"/>
<stop offset="1" stop-color="#1F80F0" stop-opacity="0.49"/>
</linearGradient>
<linearGradient id="paint10_linear_13_92" x1="1214.05" y1="1433.87" x2="1526.9" y2="1107.92" gradientUnits="userSpaceOnUse">
<stop stop-color="#00E9EA"/>
<stop offset="1" stop-color="#1F80F0"/>
</linearGradient>
<linearGradient id="paint11_linear_13_92" x1="314.698" y1="1576.46" x2="423.65" y2="1462.94" gradientUnits="userSpaceOnUse">
<stop stop-color="#00E9EA"/>
<stop offset="1" stop-color="#1F80F0"/>
</linearGradient>
<linearGradient id="paint12_linear_13_92" x1="1913" y1="1543.5" x2="2346" y2="1174" gradientUnits="userSpaceOnUse">
<stop stop-color="#00E9EA"/>
<stop offset="1" stop-color="#1F80F0" stop-opacity="0.49"/>
</linearGradient>
<linearGradient id="paint13_linear_13_92" x1="1866.8" y1="1177.13" x2="2122.78" y2="958.691" gradientUnits="userSpaceOnUse">
<stop stop-color="#00E9EA"/>
<stop offset="1" stop-color="#1F80F0" stop-opacity="0.49"/>
</linearGradient>
<linearGradient id="paint14_linear_13_92" x1="452" y1="1286.15" x2="625" y2="1286.15" gradientUnits="userSpaceOnUse">
<stop stop-color="white"/>
<stop offset="1" stop-color="#4B4B4B" stop-opacity="0"/>
</linearGradient>
<linearGradient id="paint15_linear_13_92" x1="347.971" y1="1400.99" x2="592.76" y2="1145.95" gradientUnits="userSpaceOnUse">
<stop stop-color="#00E9EA"/>
<stop offset="1" stop-color="#1F80F0"/>
</linearGradient>
<linearGradient id="paint16_linear_13_92" x1="157.276" y1="1681.98" x2="517.248" y2="1431.71" gradientUnits="userSpaceOnUse">
<stop stop-color="white"/>
<stop offset="1" stop-color="#4B4B4B" stop-opacity="0"/>
</linearGradient>
<linearGradient id="paint17_linear_13_92" x1="-206.902" y1="1810.32" x2="329.37" y2="1251.59" gradientUnits="userSpaceOnUse">
<stop stop-color="#00E9EA"/>
<stop offset="1" stop-color="#1F80F0"/>
</linearGradient>
</defs>
</svg>
