<svg xmlns="http://www.w3.org/2000/svg" fill="none" viewBox="0 0 116 115" height="115" width="116">
<ellipse style="mix-blend-mode:multiply" fill="url(#paint0_linear_6332_13567)" transform="matrix(1 0 0.00553366 0.999985 0 0)" ry="57.3747" rx="57.1917" cy="57.3747" cx="57.1917"></ellipse>
<ellipse fill="url(#paint1_linear_6332_13567)" transform="matrix(1 0 0.00553366 0.999985 0 0)" ry="57.3747" rx="57.1917" cy="57.3747" cx="57.1917"></ellipse>
<ellipse fill="white" ry="41.6207" rx="41.3556" cy="54.6234" cx="57.3827"></ellipse>
<path fill="url(#paint2_linear_6332_13567)" d="M55.4759 27.8738L34.4071 38.4739C33.1554 39.1039 32.5093 40.3881 32.5093 41.704V45.8649H36.0426V67.2041H32.5093V70.7607H53.7093V72.539C53.7093 75.4643 56.103 77.8738 59.0093 77.8738H80.2093C83.1156 77.8738 85.5093 75.4643 85.5093 72.539V58.3128C85.5093 55.3874 83.1156 52.978 80.2093 52.978H74.9093V45.8649H78.4426V44.0866V41.704C78.4426 40.3881 77.7965 39.1039 76.5448 38.4739L55.4759 27.8738ZM55.4759 31.8471L74.8886 41.6207C74.8935 41.6304 74.9093 41.6546 74.9093 41.704V42.3083H36.0426V41.704C36.0426 41.6546 36.0583 41.6235 36.0633 41.6137L55.4759 31.8471ZM55.4759 35.1953C55.0074 35.1953 54.558 35.3826 54.2267 35.7161C53.8954 36.0496 53.7093 36.5019 53.7093 36.9735C53.7093 37.4452 53.8954 37.8975 54.2267 38.231C54.558 38.5644 55.0074 38.7518 55.4759 38.7518C55.9445 38.7518 56.3939 38.5644 56.7252 38.231C57.0565 37.8975 57.2426 37.4452 57.2426 36.9735C57.2426 36.5019 57.0565 36.0496 56.7252 35.7161C56.3939 35.3826 55.9445 35.1953 55.4759 35.1953ZM39.5759 45.8649H43.1093V67.2041H39.5759V45.8649ZM46.6426 45.8649H64.3093V52.978H59.0093C56.103 52.978 53.7093 55.3874 53.7093 58.3128V67.2041H46.6426V45.8649ZM67.8426 45.8649H71.3759V52.978H67.8426V45.8649ZM59.0093 56.5345H80.2093C81.2038 56.5345 81.9759 57.3117 81.9759 58.3128V72.539C81.9759 73.54 81.2038 74.3172 80.2093 74.3172H59.0093C58.0148 74.3172 57.2426 73.54 57.2426 72.539V58.3128C57.2426 57.3117 58.0148 56.5345 59.0093 56.5345ZM71.3759 60.0911V63.6476H78.4426V60.0911H71.3759ZM60.7759 67.2041V70.7607H64.3093V67.2041H60.7759ZM67.8426 67.2041V70.7607H71.3759V67.2041H67.8426ZM74.9093 67.2041V70.7607H78.4426V67.2041H74.9093Z"></path>
<defs>
<linearGradient gradientUnits="userSpaceOnUse" y2="190.406" x2="57.1917" y1="0" x1="57.1917" id="paint0_linear_6332_13567">
<stop stop-color="#F0FAFF"></stop>
<stop stop-opacity="0" stop-color="#F0FAFF" offset="1"></stop>
</linearGradient>
<linearGradient gradientUnits="userSpaceOnUse" y2="118.951" x2="64.6714" y1="19.6996" x1="13.4075" id="paint1_linear_6332_13567">
<stop stop-color="#1F80F0"></stop>
<stop stop-opacity="0" stop-color="#9747FF" offset="1"></stop>
</linearGradient>
<linearGradient gradientUnits="userSpaceOnUse" y2="87.7504" x2="69.1043" y1="29.8738" x1="48.0093" id="paint2_linear_6332_13567">
<stop stop-color="#1F80F0"></stop>
<stop stop-color="#9747FF" offset="1"></stop>
</linearGradient>
</defs>
</svg>
