<svg xmlns="http://www.w3.org/2000/svg" fill="none" viewBox="0 0 89 88" height="88" width="89">
<ellipse fill="url(#paint0_linear_6332_13566)" transform="rotate(90 44.5 44.0929)" ry="43.923" rx="43.557" cy="44.0929" cx="44.5"></ellipse>
<ellipse fill="white" ry="31.812" rx="31.5469" cy="43.812" cx="44.4036"></ellipse>
<path fill="black" d="M59.0334 27L51.2088 34.8387L43.1004 32.1204L35.0445 40.8651L26.9886 37.7887L26.0316 40.3067L35.8017 44.0259L43.8996 35.239L51.945 37.9151L60.9474 28.8964L59.0334 27ZM42.1538 43.817V60H44.8462V43.817H42.1538ZM58.3077 43.817V60H61V43.817H58.3077ZM36.7692 46.5142V60H39.4615V46.5142H36.7692ZM47.5385 46.5142V60H50.2308V46.5142H47.5385ZM26 49.2114V60H28.6923V49.2114H26ZM31.3846 49.2114V60H34.0769V49.2114H31.3846ZM52.9231 49.2114V60H55.6154V49.2114H52.9231Z"></path>
<path fill="url(#paint1_linear_6332_13566)" d="M59.0334 27L51.2088 34.8387L43.1004 32.1204L35.0445 40.8651L26.9886 37.7887L26.0316 40.3067L35.8017 44.0259L43.8996 35.239L51.945 37.9151L60.9474 28.8964L59.0334 27ZM42.1538 43.817V60H44.8462V43.817H42.1538ZM58.3077 43.817V60H61V43.817H58.3077ZM36.7692 46.5142V60H39.4615V46.5142H36.7692ZM47.5385 46.5142V60H50.2308V46.5142H47.5385ZM26 49.2114V60H28.6923V49.2114H26ZM31.3846 49.2114V60H34.0769V49.2114H31.3846ZM52.9231 49.2114V60H55.6154V49.2114H52.9231Z"></path>
<defs>
<linearGradient gradientUnits="userSpaceOnUse" y2="34.568" x2="85.9511" y1="41.093" x1="15.4071" id="paint0_linear_6332_13566">
<stop stop-color="#1F80F0"></stop>
<stop stop-opacity="0" stop-color="#00E9EA" offset="1"></stop>
</linearGradient>
<linearGradient gradientUnits="userSpaceOnUse" y2="81.6327" x2="59.0862" y1="36" x1="44" id="paint1_linear_6332_13566">
<stop stop-color="#1F80F0"></stop>
<stop stop-color="#00E9EA" offset="1"></stop>
</linearGradient>
</defs>
</svg>
