<svg xmlns="http://www.w3.org/2000/svg" fill="none" viewBox="0 0 74 75" height="75" width="74">
<circle fill="url(#paint0_linear_6332_13565)" r="36.6025" cy="37.5774" cx="37"></circle>
<circle fill="white" r="26.51" cy="38.2482" cx="36.9189"></circle>
<path fill="black" d="M25.3214 27.4286C23.4964 27.4286 22 28.925 22 30.75V46.25C22 48.0664 23.4964 49.5714 25.3214 49.5714H49.6786C51.5036 49.5714 53 48.0751 53 46.25V30.75C53 28.925 51.495 27.4286 49.6786 27.4286H25.3214ZM25.3214 29.6429H49.6786C50.3013 29.6429 50.7857 30.1272 50.7857 30.75V46.25C50.7857 46.8728 50.3013 47.3572 49.6786 47.3572H25.3214C24.6987 47.3572 24.2143 46.8728 24.2143 46.25V30.75C24.2143 30.1186 24.69 29.6429 25.3214 29.6429ZM26.4286 34.0714V38.5H33.0714V34.0714H26.4286ZM35.2857 36.2857V38.5H48.5714V36.2857H35.2857ZM26.4286 42.9286V45.1429H28.6429V42.9286H26.4286ZM30.8571 42.9286V45.1429H35.2857V42.9286H30.8571ZM37.5 42.9286V45.1429H41.9286V42.9286H37.5ZM44.1429 42.9286V45.1429H48.5714V42.9286H44.1429Z"></path>
<path fill="url(#paint1_linear_6332_13565)" d="M25.3214 27.4286C23.4964 27.4286 22 28.925 22 30.75V46.25C22 48.0664 23.4964 49.5714 25.3214 49.5714H49.6786C51.5036 49.5714 53 48.0751 53 46.25V30.75C53 28.925 51.495 27.4286 49.6786 27.4286H25.3214ZM25.3214 29.6429H49.6786C50.3013 29.6429 50.7857 30.1272 50.7857 30.75V46.25C50.7857 46.8728 50.3013 47.3572 49.6786 47.3572H25.3214C24.6987 47.3572 24.2143 46.8728 24.2143 46.25V30.75C24.2143 30.1186 24.69 29.6429 25.3214 29.6429ZM26.4286 34.0714V38.5H33.0714V34.0714H26.4286ZM35.2857 36.2857V38.5H48.5714V36.2857H35.2857ZM26.4286 42.9286V45.1429H28.6429V42.9286H26.4286ZM30.8571 42.9286V45.1429H35.2857V42.9286H30.8571ZM37.5 42.9286V45.1429H41.9286V42.9286H37.5ZM44.1429 42.9286V45.1429H48.5714V42.9286H44.1429Z"></path>
<defs>
<linearGradient gradientUnits="userSpaceOnUse" y2="69" x2="74" y1="0.999999" x1="32.5" id="paint0_linear_6332_13565">
<stop stop-color="#1F80F0"></stop>
<stop stop-opacity="0" stop-color="#FE8B53" offset="1"></stop>
</linearGradient>
<linearGradient gradientUnits="userSpaceOnUse" y2="52.0201" x2="42.6046" y1="26.9857" x1="33.5143" id="paint1_linear_6332_13565">
<stop stop-color="#1F80F0"></stop>
<stop stop-color="#FE8B53" offset="1"></stop>
</linearGradient>
</defs>
</svg>
