<svg width="390" height="413" viewBox="0 0 390 413" fill="none" xmlns="http://www.w3.org/2000/svg">
<g clip-path="url(#clip0_4876_21715)">
<g filter="url(#filter0_f_4876_21715)">
<path d="M411 407.438L238 407.438L411 234.438L411 407.438Z" fill="url(#paint0_linear_4876_21715)"/>
<path d="M411 407.438L238 407.438L411 234.438L411 407.438Z" fill="url(#paint1_linear_4876_21715)"/>
</g>
<g style="mix-blend-mode:multiply">
<path d="M358 -141.773L358 -337.562L-275 295.438L-79.2115 295.438L358 -141.773Z" fill="url(#paint2_linear_4876_21715)"/>
</g>
<g style="mix-blend-mode:multiply">
<path d="M946 -394.966L946 -760.562L-236 421.438L129.596 421.438L946 -394.966Z" fill="url(#paint3_linear_4876_21715)"/>
</g>
<path d="M185 288.094L185 206.438L-79 470.438L2.65587 470.438L185 288.094Z" fill="url(#paint4_linear_4876_21715)"/>
<path d="M498 264.134L498 204.438L307 397.438L366.077 397.438L498 264.134Z" fill="url(#paint5_linear_4876_21715)"/>
</g>
<defs>
<filter id="filter0_f_4876_21715" x="205" y="201.438" width="239" height="239" filterUnits="userSpaceOnUse" color-interpolation-filters="sRGB">
<feFlood flood-opacity="0" result="BackgroundImageFix"/>
<feBlend mode="normal" in="SourceGraphic" in2="BackgroundImageFix" result="shape"/>
<feGaussianBlur stdDeviation="16.5" result="effect1_foregroundBlur_4876_21715"/>
</filter>
<linearGradient id="paint0_linear_4876_21715" x1="411" y1="321.289" x2="238" y2="321.289" gradientUnits="userSpaceOnUse">
<stop stop-color="white"/>
<stop offset="1" stop-color="#4B4B4B" stop-opacity="0"/>
</linearGradient>
<linearGradient id="paint1_linear_4876_21715" x1="515.029" y1="206.447" x2="270.24" y2="461.486" gradientUnits="userSpaceOnUse">
<stop stop-color="#00E9EA"/>
<stop offset="1" stop-color="#1F80F0"/>
</linearGradient>
<linearGradient id="paint2_linear_4876_21715" x1="-551.41" y1="882.019" x2="168.1" y2="30.6334" gradientUnits="userSpaceOnUse">
<stop stop-color="#1F80F0"/>
<stop offset="1" stop-color="#0059BF" stop-opacity="0"/>
</linearGradient>
<linearGradient id="paint3_linear_4876_21715" x1="696.5" y1="838.438" x2="126" y2="164.938" gradientUnits="userSpaceOnUse">
<stop stop-color="#1F80F0"/>
<stop offset="1" stop-color="#0059BF" stop-opacity="0"/>
</linearGradient>
<linearGradient id="paint4_linear_4876_21715" x1="-127" y1="491.968" x2="178.647" y2="231.144" gradientUnits="userSpaceOnUse">
<stop stop-color="#00E9EA"/>
<stop offset="1" stop-color="#1F80F0" stop-opacity="0.49"/>
</linearGradient>
<linearGradient id="paint5_linear_4876_21715" x1="272.273" y1="413.177" x2="495.342" y2="224.794" gradientUnits="userSpaceOnUse">
<stop stop-color="#00E9EA"/>
<stop offset="1" stop-color="#1F80F0" stop-opacity="0.49"/>
</linearGradient>
<clipPath id="clip0_4876_21715">
<rect width="390" height="413" fill="white" transform="translate(390 413) rotate(-180)"/>
</clipPath>
</defs>
</svg>